<svg width="32" height="32" viewBox="0 0 36 36" fill="none" xmlns="http://www.w3.org/2000/svg">
  <rect width="36" height="36" rx="6" fill="#ffd8f4"/>
  <!-- Top-left: 2 shadow layers -->
  <rect x="6" y="6" width="10" height="10" rx="2" fill="#b890a8" transform="translate(2,2)"/>
  <rect x="6" y="6" width="10" height="10" rx="2" fill="#d0a8c0" transform="translate(1,1)"/>
  <rect x="6" y="6" width="10" height="10" rx="2" fill="#ffd8f4" stroke="#1a1a1a" stroke-width="1.5"/>
  <!-- Top-right (accent): 3 shadow layers -->
  <rect x="20" y="6" width="10" height="10" rx="2" fill="#9c8000" transform="translate(3,3)"/>
  <rect x="20" y="6" width="10" height="10" rx="2" fill="#b89400" transform="translate(2,2)"/>
  <rect x="20" y="6" width="10" height="10" rx="2" fill="#d4a800" transform="translate(1,1)"/>
  <rect x="20" y="6" width="10" height="10" rx="2" fill="#ffc900" stroke="#1a1a1a" stroke-width="1.5"/>
  <!-- Bottom-left: 2 shadow layers -->
  <rect x="6" y="20" width="10" height="10" rx="2" fill="#b890a8" transform="translate(2,2)"/>
  <rect x="6" y="20" width="10" height="10" rx="2" fill="#d0a8c0" transform="translate(1,1)"/>
  <rect x="6" y="20" width="10" height="10" rx="2" fill="#ffd8f4" stroke="#1a1a1a" stroke-width="1.5"/>
  <!-- Bottom-right: 2 shadow layers -->
  <rect x="20" y="20" width="10" height="10" rx="2" fill="#b890a8" transform="translate(2,2)"/>
  <rect x="20" y="20" width="10" height="10" rx="2" fill="#d0a8c0" transform="translate(1,1)"/>
  <rect x="20" y="20" width="10" height="10" rx="2" fill="#ffd8f4" stroke="#1a1a1a" stroke-width="1.5"/>
  <!-- Location dot -->
  <circle cx="25" cy="11" r="2" fill="#1a1a1a"/>
  <circle cx="25" cy="11" r="0.8" fill="#ffc900"/>
</svg>
