<svg xmlns="http://www.w3.org/2000/svg" viewBox="0 0 32 32" fill="none">
  <rect width="32" height="32" rx="7" fill="#0a0e1a"/>
  <g transform="translate(2.5, 1.5) scale(0.152)">
    <path d="M107.252 101.771C105.817 104.053 102.11 107.49 102.11 107.49C102.11 107.49 110.747 103.314 115.576 99.2846C120.405 95.2548 126.349 86.1062 126.349 86.1062C126.349 86.1062 130.907 66.4701 129.042 56.517C127.178 46.5639 120.473 35.3819 120.473 35.3819C120.473 35.3819 111.024 25.839 105.048 21.9549C99.072 18.0707 87.1748 15.49 87.1748 15.49C87.1748 15.49 83.7426 15.5444 81.5435 15.7386C79.3443 15.9328 75.9122 16.4846 75.9122 16.4846C75.9122 16.4846 72.5815 17.1938 70.5257 17.7278C68.47 18.2619 65.3841 19.2197 65.3841 19.2197C65.3841 19.2197 60.8654 20.7411 58.2838 21.9549C55.7022 23.1686 48.4902 27.9224 48.4902 27.9224C48.4902 27.9224 65.1526 27.8272 70.5257 29.4143C75.8988 31.0014 86.1954 34.1386 86.1954 34.1386C86.1954 34.1386 98.833 42.4972 105.048 48.8089C111.263 55.1206 115.576 72.4305 115.576 72.4305C115.576 72.4305 116.29 77.3271 115.576 82.1278C114.862 86.9286 109.945 95.3062 109.945 95.3062C109.945 95.3062 108.686 99.4891 107.252 101.771Z" fill="#2d2866"/>
    <path d="M27.7152 131.49L26.7371 122.74C26.7371 122.74 26.2481 117.974 26.2481 115.24V107.99C26.2481 107.99 26.2597 103.468 26.7371 100.49C27.2145 97.5122 28.4486 92.74 28.4486 92.74C28.4486 92.74 29.7001 88.3701 30.8936 85.49C32.0871 82.6099 34.3166 77.74 34.3166 77.74C34.3166 77.74 37.0105 73.1689 39.2066 70.24C41.4027 67.3111 46.0525 62.99 46.0525 62.99C46.0525 62.99 51.1307 59.0033 54.8545 57.49C58.5783 55.9767 65.1235 55.24 65.1235 55.24C65.1235 55.24 70.8816 54.5447 74.4144 54.74C77.9473 54.9353 83.2164 56.24 83.2164 56.24C83.2164 56.24 89.6067 58.1158 92.9963 61.24C96.386 64.3642 100.82 71.24 100.82 71.24C100.82 71.24 103.694 73.4338 105.221 75.24C106.749 77.0462 108.4 80.49 108.4 80.49C108.4 80.49 109.24 82.5255 109.622 83.99C110.004 85.4545 110.356 87.99 110.356 87.99C110.356 87.99 110.499 90.422 110.356 91.74C110.213 93.058 109.622 94.74 109.622 94.74C109.622 94.74 111.424 91.49 112.312 89.74C113.199 87.99 113.045 87.99 113.045 87.99C113.045 87.99 114.327 85.7045 114.757 84.24C115.186 82.7755 115.246 80.49 115.246 80.49C115.246 80.49 115.49 77.7962 115.49 75.99C115.49 74.1838 115.246 71.24 115.246 71.24C115.246 71.24 114.596 68.2473 114.023 66.49C113.45 64.7326 112.312 62.24 112.312 62.24C112.312 62.24 111.215 59.3938 110.356 57.49C109.496 55.5862 107.911 52.49 107.911 52.49C107.911 52.49 106.117 49.8509 104.732 48.24C103.348 46.6291 100.82 44.49 100.82 44.49L94.4633 38.99C94.4633 38.99 86.9388 34.2222 85.1724 33.49C83.4059 32.7578 80.038 31.49 80.038 31.49C80.038 31.49 75.9726 30.4234 73.681 29.74C71.3894 29.0566 66.346 28.24 66.346 28.24C66.346 28.24 63.5031 27.9353 61.2115 27.74C58.9199 27.5447 55.3435 27.49 55.3435 27.49H47.764C47.764 27.49 44.2412 29.9826 42.1406 31.74C40.0399 33.4973 37.2506 36.49 37.2506 36.49C37.2506 36.49 34.9198 38.9767 33.5831 40.49C32.2463 42.0033 30.4046 44.24 30.4046 44.24C30.4046 44.24 27.2333 48.7622 25.5146 51.74C23.7959 54.7177 21.6026 59.49 21.6026 59.49C21.6026 59.49 19.8202 63.7075 18.9132 66.49C18.0061 69.2725 17.2017 73.99 17.2017 73.99C17.2017 73.99 16.3611 77.7193 15.9792 80.99C15.5972 84.2606 15.4902 90.74 15.4902 90.74C15.4902 90.74 15.5495 94.5788 15.9792 98.24C16.4088 101.901 18.1797 109.49 18.1797 109.49C18.1797 109.49 19.9853 115.944 21.8472 120.24C23.7091 124.536 27.7152 131.49 27.7152 131.49Z" fill="#A4E242"/>
    <path d="M90.4554 67.8996C89.0695 67.7542 88.2527 67.8996 88.2527 67.8996C88.2527 67.8996 82.5886 65.5572 81.1549 65.1695C79.7211 64.7818 75.2808 64.4249 75.2808 64.4249C75.2808 64.4249 71.5212 64.3765 69.8963 64.4249C68.2714 64.4734 63.288 66.1623 63.288 66.1623C63.288 66.1623 60.7637 67.8145 59.6167 68.396C58.4697 68.9776 56.1902 71.6225 56.1902 71.6225C56.1902 71.6225 54.991 72.8444 53.9874 74.1044C52.9838 75.3645 51.2951 77.5791 51.2951 77.5791C51.2951 77.5791 48.3885 82.2567 47.6239 84.7767C46.8592 87.2968 45.4211 92.4707 45.4211 92.4707C45.4211 92.4707 44.9678 94.7324 44.4421 97.931C43.9164 101.129 43.9526 108.355 43.9526 108.355C43.9526 108.355 44.8954 115.259 45.4211 119.524C45.9468 123.788 47.1344 130.196 47.1344 130.196C47.1344 130.196 48.8288 136.131 50.0714 141.365C51.3139 146.599 59.8615 158.49 59.8615 158.49C59.8615 158.49 54.4131 156.021 51.7846 154.519C49.1561 153.017 46.4001 150.796 46.4001 150.796C46.4001 150.796 42.6766 148.17 40.5261 146.329C38.3755 144.487 35.3863 141.365 35.3863 141.365C35.3863 141.365 32.7548 138.787 31.2255 136.897C29.6962 135.007 27.5542 131.685 27.5542 131.685C27.5542 131.685 26.7664 124.031 26.5752 119.524C26.384 115.017 26.5752 108.603 26.5752 108.603C26.5752 108.603 26.6346 103.72 27.0647 100.909C27.4948 98.0984 28.5332 93.9599 28.5332 93.9599C28.5332 93.9599 29.786 89.319 30.9807 86.2659C32.1755 83.2127 34.4072 78.3237 34.4072 78.3237C34.4072 78.3237 36.6448 74.6507 38.0785 72.6153C39.5122 70.5799 41.7498 67.8996 41.7498 67.8996C41.7498 67.8996 44.2973 65.1284 46.4001 63.4322C48.5029 61.736 52.5189 59.2129 52.5189 59.2129C52.5189 59.2129 57.6501 57.2097 61.3299 56.4828C65.0098 55.7558 71.3648 55.49 71.3648 55.49C71.3648 55.49 75.4344 55.6471 77.7283 55.9864C80.0223 56.3256 83.1129 57.2273 83.1129 57.2273C83.1129 57.2273 86.6813 58.2436 88.4974 59.2129C90.3134 60.1821 92.4134 61.943 92.4134 61.943C92.4134 61.943 95.5344 64.7201 97.0637 66.6586C98.593 68.5972 100.49 71.6225 100.49 71.6225C100.49 71.6225 98.3063 70.2185 97.0637 69.637C95.8212 69.0554 93.8819 68.6442 93.8819 68.6442C93.8819 68.6442 91.8413 68.045 90.4554 67.8996Z" fill="#2d2866"/>
    <path d="M149.49 131.006L142.87 134.713C142.87 134.713 139.664 136.199 137.477 136.69C135.289 137.181 129.631 138.42 129.631 138.42C129.631 138.42 124.317 139.415 121.54 139.656C118.763 139.897 115.411 139.656 115.411 139.656H108.3L101.19 138.42C101.19 138.42 96.3721 137.559 93.8348 136.69C91.2975 135.822 87.9506 134.713 87.9506 134.713C87.9506 134.713 84.1191 132.502 81.8211 131.006C79.5232 129.51 76.4272 126.31 76.4272 126.31C76.4272 126.31 73.9942 123.743 72.7495 121.861C71.5048 119.979 69.317 115.929 69.317 115.929C69.317 115.929 67.9986 113.077 67.3556 111.234C66.7126 109.39 65.6394 106.29 65.6394 106.29C65.6394 106.29 64.7965 103.832 64.4135 102.336C64.0305 100.84 63.6779 98.1344 63.6779 98.1344C63.6779 98.1344 63.3312 95.6702 63.1876 93.9328C63.044 92.1955 62.9424 88.9898 62.9424 88.9898C62.9424 88.9898 62.7987 86.8413 62.9902 85.49C63.1817 84.1387 63.9231 82.0695 63.9231 82.0695C63.9231 82.0695 64.9212 80.1 65.6394 78.99C66.3575 77.88 67.4902 76.99 67.4902 76.99C67.4902 76.99 69.0328 75.8761 69.9902 75.49C70.9477 75.1039 72.4902 74.49 72.4902 74.49C72.4902 74.49 74.8953 72.2565 76.4272 71.1948C77.9592 70.1331 80.8404 68.9704 80.8404 68.9704C80.8404 68.9704 82.5378 68.2714 83.7826 67.9818C85.0273 67.6923 87.2151 67.4875 87.2151 67.4875C87.2151 67.4875 83.2051 65.3962 79.6145 64.7688C76.024 64.1414 68.8267 64.7688 68.8267 64.7688C68.8267 64.7688 65.6408 65.4313 63.678 66.2517C61.7151 67.0722 58.7744 68.9704 58.7744 68.9704C58.7744 68.9704 55.5943 71.9407 53.8708 74.1606C52.1474 76.3806 49.948 80.3395 49.948 80.3395C49.948 80.3395 48.4058 82.6282 47.4962 85.2825C46.5866 87.9368 45.2896 93.9328 45.2896 93.9328C45.2896 93.9328 44.6977 98.7473 44.5541 101.595C44.4104 104.442 44.5541 108.515 44.5541 108.515L46.0251 121.861C46.0251 121.861 47.37 129.562 48.2317 133.23C49.0935 136.898 51.1739 142.869 51.1739 142.869C51.1739 142.869 53.1818 147.243 55.0967 150.284C57.0117 153.324 60.981 158.44 60.981 158.44C60.981 158.44 68.3031 160.687 72.9947 161.653C77.6864 162.618 85.0085 163.383 85.0085 163.383C85.0085 163.383 90.3879 163.624 93.8348 163.383C97.2817 163.141 102.661 162.147 102.661 162.147C102.661 162.147 107.79 161.183 110.997 160.17C114.205 159.156 119.088 156.957 119.088 156.957C119.088 156.957 125.305 153.836 128.895 151.519C132.486 149.203 137.477 145.093 137.477 145.093C137.477 145.093 141.457 141.123 143.851 138.42C146.245 135.718 149.49 131.006 149.49 131.006Z" fill="#A4E242"/>
    <path d="M146.107 98.2209C141.398 104.619 130.457 111.784 130.457 111.784L126.422 113.881L122.387 115.977L114.806 117.21L103.313 117.703L93.7765 117.21L88.6413 116.47L84.4843 115.483L80.5717 114.25L78.1264 112.771L76.1701 111.291L74.9475 109.811L73.7248 108.085L71.524 104.386L68.4904 99.49C68.4904 99.49 67.7325 96.5218 67.3669 94.49C67.0013 92.4582 66.9904 89.99 66.9904 89.99C66.9904 89.99 67.3214 87.106 67.6114 85.3973C67.9014 83.6887 68.4904 80.99 68.4904 80.99C68.4904 80.99 69.6787 78.742 70.4904 77.49C71.3021 76.238 73.9902 72.99 73.9902 72.99C73.9902 72.99 70.7794 74.8158 69.4902 75.49C68.201 76.1641 65.9902 78.49 65.9902 78.49C65.9902 78.49 64.4686 80.9453 63.9434 82.4381C63.4181 83.9308 62.4902 86.49 62.4902 86.49C62.4902 86.49 61.4981 89.99 61.4981 92.3024V99.7006C61.4981 99.7006 62.1058 104.107 62.9653 106.852C63.8248 109.597 67.6114 116.47 67.6114 116.47C67.6114 116.47 69.9483 119.933 71.524 122.388C73.0997 124.844 77.1482 127.567 77.1482 127.567C77.1482 127.567 79.7947 129.677 82.0388 131.266C84.283 132.855 88.6413 134.472 88.6413 134.472C88.6413 134.472 93.0169 136.168 95.9773 136.938C98.9377 137.709 103.313 138.665 103.313 138.665C103.313 138.665 106.961 139.212 110.16 139.404C113.359 139.597 120.186 139.404 120.186 139.404C120.186 139.404 125.701 138.797 129.234 138.171C132.767 137.545 138.282 136.198 138.282 136.198C138.282 136.198 141.077 135.285 143.417 134.226C145.756 133.166 150.264 130.773 150.264 130.773C150.264 130.773 152.887 126.667 154.176 124.115C155.465 121.563 156.866 117.703 156.866 117.703C156.866 117.703 158.351 114.048 159.067 111.784C159.783 109.521 160.534 106.112 160.534 106.112C160.534 106.112 161.667 101.357 162.001 98.4675C162.336 95.5784 162.49 91.3159 162.49 91.3159C162.49 91.3159 162.437 87.3001 162.246 84.4109C162.055 81.5217 161.268 76.5195 161.268 76.5195C161.268 76.5195 160.415 72.0527 159.556 68.8746C158.697 65.6965 156.866 60.49 156.866 60.49V63.4493C156.866 63.4493 156.956 68.8543 156.622 72.0805C156.287 75.3068 155.965 76.9448 155.154 79.972C154.344 82.9992 150.815 91.8227 146.107 98.2209Z" fill="#2d2866"/>
    <path d="M96.1078 110.326C93.846 111.146 90.1928 111.808 90.1928 111.808C90.1928 111.808 85.9986 111.796 83.7849 111.314C81.5711 110.832 78.3628 109.585 78.3628 109.585C78.3628 109.585 75.3644 107.87 73.68 106.375C71.9957 104.88 69.4902 101.188 69.4902 101.188C69.4902 101.188 70.5534 105.138 71.7084 107.116C72.8633 109.093 74.4194 111.314 74.4194 111.314C74.4194 111.314 77.1305 114.772 79.1021 116.006C81.0738 117.241 83.7849 118.476 83.7849 118.476C83.7849 118.476 92.4198 120.211 96.8472 120.452C101.275 120.693 109.663 119.711 109.663 119.711C109.663 119.711 113.113 119.217 115.825 118.476C118.536 117.735 122.972 116.006 122.972 116.006C122.972 116.006 127.13 113.791 129.873 112.055C132.616 110.319 136.281 107.363 136.281 107.363C136.281 107.363 139.183 104.852 140.963 103.164C142.744 101.476 145.153 98.4716 145.153 98.4716C145.153 98.4716 147.352 95.3589 148.604 93.2853C149.855 91.2117 151.561 87.852 151.561 87.852C151.561 87.852 153.057 84.3417 153.779 82.1717C154.501 80.0016 155.258 76.7383 155.258 76.7383C155.258 76.7383 155.757 73.9456 155.997 70.8111C156.238 67.6765 156.49 60.6853 156.49 60.6853C156.49 60.6853 153.438 55.1277 151.561 52.0414C149.684 48.9551 146.878 44.8793 146.878 44.8793C146.878 44.8793 144.169 41.5196 142.196 39.446C140.223 37.3724 136.774 34.2596 136.774 34.2596C136.774 34.2596 134.16 31.8513 132.091 30.3081C130.021 28.765 126.176 26.3566 126.176 26.3566C126.176 26.3566 122.715 24.3516 120.261 23.146C117.806 21.9404 113.606 20.1824 113.606 20.1824C113.606 20.1824 105.844 17.8881 100.791 16.9718C95.7375 16.0556 87.7282 15.49 87.7282 15.49C87.7282 15.49 96.3995 18.0489 100.298 19.6885C104.196 21.3281 107.691 23.8869 107.691 23.8869C107.691 23.8869 111.843 27.102 114.346 29.3203C116.848 31.5386 120.014 34.7536 120.014 34.7536C120.014 34.7536 122.514 38.3778 123.958 41.1748C125.401 43.9718 127.408 49.0778 127.408 49.0778C127.408 49.0778 128.454 53.4911 128.887 56.2399C129.32 58.9887 129.626 63.155 129.626 63.155C129.626 63.155 129.32 68.5797 128.887 72.2929C128.454 76.0061 127.162 82.1717 127.162 82.1717C127.162 82.1717 125.931 86.9825 123.958 89.8277C121.985 92.6729 118.536 96.0019 118.536 96.0019C118.536 96.0019 114.324 100.151 111.388 102.176C108.453 104.202 102.023 107.116 102.023 107.116C102.023 107.116 98.3696 109.506 96.1078 110.326Z" fill="#A4E242"/>
  </g>
</svg>
